HIERARCHY
ROOT Hips
{
	OFFSET 0.000000 0.000000 0.000000 
	CHANNELS 6 Xposition Yposition Zposition Zrotation Yrotation Xrotation
	JOINT LeftUpLeg
	{
		OFFSET 1.363060 -1.794630 0.839290 
		CHANNELS 3 Zrotation Yrotation Xrotation
		JOINT LeftLeg
		{
			OFFSET 2.448110 -6.726130 0.000000 
			CHANNELS 3 Zrotation Yrotation Xrotation
			JOINT LeftFoot
			{
				OFFSET 2.562200 -7.039590 0.000000 
				CHANNELS 3 Zrotation Yrotation Xrotation
				JOINT LeftToeBase
				{
					OFFSET 0.157640 -0.433110 2.322550 
					CHANNELS 3 Zrotation Yrotation Xrotation
					End Site
					{
						OFFSET 0.000000 0.000000 0.000000 
					}
				}
			}
		}
	}
	JOINT RightUpLeg
	{
		OFFSET -1.305520 -1.794630 0.839290 
		CHANNELS 3 Zrotation Yrotation Xrotation
		JOINT RightLeg
		{
			OFFSET -2.542530 -6.985550 0.000000 
			CHANNELS 3 Zrotation Yrotation Xrotation
			JOINT RightFoot
			{
				OFFSET -2.568260 -7.056230 0.000000 
				CHANNELS 3 Zrotation Yrotation Xrotation
				JOINT RightToeBase
				{
					OFFSET -0.164730 -0.452590 2.363150 
					CHANNELS 3 Zrotation Yrotation Xrotation
					End Site
					{
						OFFSET 0.000000 0.000000 0.000000 
					}
				}
			}
		}
	}
	JOINT Spine
	{
		OFFSET 0.028270 2.035590 -0.193380 
		CHANNELS 3 Zrotation Yrotation Xrotation
		JOINT Spine1
		{
			OFFSET 0.056720 2.048850 -0.042750 
			CHANNELS 3 Zrotation Yrotation Xrotation
			JOINT Neck1
			{
				OFFSET -0.054170 1.746240 0.172020 
				CHANNELS 3 Zrotation Yrotation Xrotation
				JOINT Head
				{
					OFFSET 0.104070 1.761360 -0.123970 
					CHANNELS 3 Zrotation Yrotation Xrotation
					End Site
					{
						OFFSET 0.000000 0.000000 0.000000 
					}
				}
			}
			JOINT LeftArm
			{
				OFFSET 3.362410 1.200890 -0.311210 
				CHANNELS 3 Zrotation Yrotation Xrotation
				JOINT LeftForeArm
				{
					OFFSET 4.983000 -0.000000 -0.000000 
					CHANNELS 3 Zrotation Yrotation Xrotation
					JOINT LeftHand
					{
						OFFSET 3.483560 -0.000000 -0.000000 
						CHANNELS 3 Zrotation Yrotation Xrotation
						JOINT LeftHandIndex1
						{
							OFFSET 0.715260 -0.000000 -0.000000 
							CHANNELS 3 Zrotation Yrotation Xrotation
							End Site
							{
								OFFSET 0.000000 0.000000 0.000000 
							}
						}
					}
				}
			}
			JOINT RightArm
			{
				OFFSET -3.136600 1.374050 -0.404650 
				CHANNELS 3 Zrotation Yrotation Xrotation
				JOINT RightForeArm
				{
					OFFSET -5.241900 -0.000000 -0.000000 
					CHANNELS 3 Zrotation Yrotation Xrotation
					JOINT RightHand
					{
						OFFSET -3.444170 -0.000000 -0.000000 
						CHANNELS 3 Zrotation Yrotation Xrotation
						JOINT RightHandIndex1
						{
							OFFSET -0.622530 -0.000000 -0.000000 
							CHANNELS 3 Zrotation Yrotation Xrotation
							End Site
							{
								OFFSET 0.000000 0.000000 0.000000 
							}
						}
					}
				}
			}
		}
	}
}
MOTION
Frames: 17
Frame Time: 0.041667
-0.607579 18.298883 5.794201 -3.480956 -4.738332 -2.181624 -11.823413 -9.500509 -1.327564 0.900800 7.141603 23.591250 -0.841231 8.554073 -18.034128 7.981200 -16.105400 -52.495000 2.657425 1.994103 -2.030790 0.123251 0.662205 1.430228 0.306584 -1.156768 6.388420 0.000000 0.000000 0.000000 -2.845178 3.318013 23.583506 -1.926718 2.159429 -14.566296 2.092589 -3.634055 27.113440 -0.165700 -1.214100 9.196700 -93.400217 9.136805 22.959970 24.389611 -33.582398 -6.292257 0.486449 0.035932 15.239898 -7.125000 0.000000 0.000000 96.509936 -13.242631 20.884342 -32.477701 40.878035 -9.780443 1.177548 -3.328214 13.733550 7.125000 0.000000 0.000000 
-0.606990 18.299178 5.794103 -3.477359 -4.727895 -2.173631 -11.820250 -9.530949 -1.327489 0.902752 7.148818 23.605657 -0.832246 8.528597 -18.052518 7.958100 -16.088400 -52.411700 2.656816 1.994052 -2.031453 0.123448 0.661886 1.430298 0.306520 -1.156895 6.387982 0.000000 0.000000 0.000000 -2.932825 3.342902 23.505681 -1.923817 2.163814 -14.568798 2.013353 -3.635125 27.025753 -0.189800 -1.224200 9.162800 -93.353615 9.177801 23.028053 24.492944 -33.681632 -6.332669 0.479013 0.039464 14.938595 -7.125000 0.000000 0.000000 96.551805 -13.253262 20.812170 -32.490636 40.893115 -9.791710 1.173497 -3.329175 13.738191 7.125000 0.000000 0.000000 
-0.607186 18.299669 5.793415 -3.489498 -4.721406 -2.151863 -11.801335 -9.549299 -1.342734 0.903828 7.154086 23.614046 -0.826036 8.508977 -18.061001 7.940800 -16.075500 -52.349100 2.658121 1.993367 -2.033426 0.123501 0.660519 1.429960 0.306118 -1.158137 6.387316 0.000000 0.000000 0.000000 -2.944374 3.351928 23.390536 -1.939527 2.163591 -14.574896 2.072071 -3.671201 27.003520 -0.177200 -1.236500 9.146300 -93.314759 9.208877 23.045714 24.528103 -33.711431 -6.345526 0.475656 0.039649 14.844238 -7.125000 0.000000 0.000000 96.564131 -13.275254 20.781477 -32.499411 40.897827 -9.800766 1.171965 -3.330053 13.728224 7.125000 0.000000 0.000000 
-0.607776 18.299669 5.792335 -3.514005 -4.737943 -2.143580 -11.778378 -9.521719 -1.360235 0.906825 7.157249 23.624052 -0.815701 8.468154 -18.054178 7.932500 -16.069400 -52.319200 2.661020 1.992409 -2.035445 0.123283 0.658913 1.429358 0.305609 -1.159831 6.386949 0.000000 0.000000 0.000000 -2.829054 3.335692 23.327569 -1.968333 2.159472 -14.587874 2.146390 -3.673558 27.014850 -0.152000 -1.232000 9.144600 -93.328744 9.214284 22.970508 24.510192 -33.692329 -6.338029 0.475689 0.037928 14.898628 -7.125000 0.000000 0.000000 96.538794 -13.295987 20.811199 -32.501001 40.891971 -9.802231 1.170570 -3.329722 13.738554 7.125000 0.000000 0.000000 
-0.608070 18.299473 5.791647 -3.527666 -4.745912 -2.161967 -11.773047 -9.540223 -1.337346 0.907998 7.159953 23.634026 -0.812200 8.466752 -18.085622 7.923200 -16.062500 -52.285700 2.661542 1.992322 -2.035419 0.123187 0.658839 1.429299 0.305590 -1.159963 6.387048 0.000000 0.000000 0.000000 -2.782364 3.331711 23.336970 -1.982088 2.158397 -14.598650 2.168593 -3.641489 26.899344 -0.141300 -1.216500 9.112200 -93.342021 9.195078 22.915276 24.505420 -33.688440 -6.333789 0.472806 0.039318 14.923971 -7.125000 0.000000 0.000000 96.511830 -13.304560 20.874823 -32.503423 40.892221 -9.803245 1.171450 -3.329274 13.696230 7.125000 0.000000 0.000000 
-0.607972 18.299571 5.791647 -3.548851 -4.739154 -2.153781 -11.750143 -9.525316 -1.353705 0.909226 7.163915 23.641926 -0.813568 8.470198 -18.080424 7.930400 -16.067800 -52.311400 2.661993 1.992048 -2.036223 0.123219 0.658282 1.429198 0.305442 -1.160445 6.386749 0.000000 0.000000 0.000000 -2.785142 3.340905 23.279218 -1.997095 2.157890 -14.591977 2.246747 -3.640153 26.781816 -0.126800 -1.205600 9.074900 -93.320899 9.192263 22.911460 24.525094 -33.702177 -6.336299 0.466651 0.042228 14.925366 -7.125000 0.000000 0.000000 96.500431 -13.326219 20.896633 -32.496549 40.880383 -9.797916 1.172925 -3.328844 13.652558 7.125000 0.000000 0.000000 
-0.608169 18.299767 5.791549 -3.580438 -4.741158 -2.138698 -11.708612 -9.461838 -1.392271 0.912049 7.167396 23.648095 -0.810133 8.441803 -18.038619 7.941300 -16.075900 -52.350800 2.663425 1.991486 -2.037699 0.123171 0.657215 1.428905 0.305129 -1.161468 6.386344 0.000000 0.000000 0.000000 -2.747699 3.345570 23.202819 -2.024335 2.156728 -14.587819 2.334220 -3.658939 26.682515 -0.109900 -1.204600 9.041500 -93.296862 9.203749 22.916305 24.543115 -33.715321 -6.340820 0.463331 0.045110 14.927753 -7.125000 0.000000 0.000000 96.509226 -13.336785 20.871486 -32.472360 40.859056 -9.789206 1.167864 -3.330976 13.674464 7.125000 0.000000 0.000000 
-0.608463 18.299571 5.791353 -3.581687 -4.748712 -2.154801 -11.708156 -9.467413 -1.365951 0.911818 7.166312 23.646024 -0.802856 8.422530 -18.058579 7.918100 -16.058700 -52.267300 2.663778 1.991317 -2.037951 0.123157 0.656960 1.428818 0.305070 -1.161725 6.386270 0.000000 0.000000 0.000000 -2.733896 3.354686 23.191336 -2.034418 2.161619 -14.597859 2.322894 -3.652602 26.505719 -0.107500 -1.209500 8.990400 -93.285222 9.196215 22.916173 24.539634 -33.713791 -6.339643 0.463325 0.046865 14.900738 -7.125000 0.000000 0.000000 96.521847 -13.336057 20.835430 -32.469170 40.860930 -9.792899 1.164659 -3.332839 13.743264 7.125000 0.000000 0.000000 
-0.607776 18.299374 5.790763 -3.563956 -4.755205 -2.165097 -11.737355 -9.493584 -1.339363 0.909001 7.161339 23.633975 -0.805286 8.437825 -18.075768 7.904700 -16.048700 -52.218600 2.663810 1.991356 -2.037637 0.123112 0.657117 1.428820 0.305120 -1.161621 6.386414 0.000000 0.000000 0.000000 -2.710806 3.359728 23.219414 -2.031336 2.167309 -14.609847 2.148291 -3.595098 26.416839 -0.141600 -1.205600 8.970900 -93.295421 9.163236 22.910632 24.529378 -33.706663 -6.336332 0.463797 0.045891 14.845046 -7.125000 0.000000 0.000000 96.481176 -13.331709 20.854246 -32.480813 40.868186 -9.799382 1.166989 -3.331845 13.754274 7.125000 0.000000 0.000000 
-0.607579 18.300062 5.789978 -3.504560 -4.754543 -2.147715 -11.789246 -9.504759 -1.352837 0.905363 7.157498 23.619658 -0.816531 8.475054 -18.062447 7.920200 -16.060200 -52.274700 2.661681 1.991775 -2.036946 0.123405 0.657771 1.429108 0.305316 -1.160823 6.386319 0.000000 0.000000 0.000000 -2.836612 3.396302 23.228447 -1.982363 2.184783 -14.608531 1.971601 -3.555225 26.454243 -0.187800 -1.202400 8.989800 -93.277441 9.136328 22.957976 24.518674 -33.694562 -6.332197 0.465297 0.044551 14.818878 -7.125000 0.000000 0.000000 96.475191 -13.301194 20.841335 -32.468719 40.863416 -9.795478 1.163537 -3.332412 13.699574 7.125000 0.000000 0.000000 
-0.607972 18.300750 5.789781 -3.455947 -4.745859 -2.136930 -11.825049 -9.510819 -1.359716 0.903244 7.155036 23.609841 -0.814870 8.471788 -18.067802 7.918400 -16.058900 -52.268200 2.660024 1.992001 -2.036594 0.123676 0.658120 1.429290 0.305430 -1.160337 6.386138 0.000000 0.000000 0.000000 -2.947919 3.428236 23.220397 -1.948461 2.199195 -14.603356 2.005333 -3.574082 26.429609 -0.183800 -1.207100 8.987800 -93.252217 9.127256 22.999384 24.503115 -33.677680 -6.325229 0.466549 0.045338 14.839050 -7.125000 0.000000 0.000000 96.505647 -13.279393 20.786883 -32.465088 40.870398 -9.799789 1.157853 -3.334315 13.651955 7.125000 0.000000 0.000000 
-0.607481 18.300160 5.789290 -3.488674 -4.741813 -2.157313 -11.802214 -9.499177 -1.342156 0.903615 7.151580 23.603852 -0.809264 8.446433 -18.057447 7.913600 -16.055400 -52.251000 2.661430 1.991939 -2.036424 0.123378 0.658099 1.429213 0.305430 -1.160519 6.386491 0.000000 0.000000 0.000000 -2.814940 3.409842 23.251969 -2.007954 2.190891 -14.613310 2.207284 -3.609107 26.313768 -0.128700 -1.207700 8.958500 -93.267820 9.115144 22.989635 24.492618 -33.673110 -6.322376 0.467337 0.045515 14.840005 -7.125000 0.000000 0.000000 96.481290 -13.276823 20.804173 -32.475992 40.876318 -9.806478 1.158313 -3.333409 13.596249 7.125000 0.000000 0.000000 
-0.606990 18.299669 5.788603 -3.525769 -4.748726 -2.181552 -11.775765 -9.493554 -1.325942 0.904673 7.149730 23.603530 -0.811377 8.446490 -18.038308 7.920200 -16.060200 -52.274600 2.661918 1.992349 -2.035189 0.123070 0.658892 1.429407 0.305679 -1.159910 6.387172 0.000000 0.000000 0.000000 -2.684867 3.398306 23.331503 -2.072142 2.185102 -14.616866 2.384727 -3.638624 26.197757 -0.081100 -1.207600 8.931700 -93.288799 9.086886 23.000325 24.493528 -33.682314 -6.325228 0.468415 0.045327 14.841153 -7.125000 0.000000 0.000000 96.446687 -13.251421 20.848760 -32.469663 40.861606 -9.793072 1.157281 -3.329039 13.543580 7.125000 0.000000 0.000000 
-0.606695 18.300160 5.787817 -3.507302 -4.754311 -2.172213 -11.790491 -9.503135 -1.347617 0.904768 7.151850 23.609597 -0.822845 8.484337 -18.026086 7.932800 -16.069600 -52.320300 2.659840 1.993189 -2.033316 0.123153 0.660332 1.429918 0.306118 -1.158455 6.387634 0.000000 0.000000 0.000000 -2.732680 3.416257 23.399522 -2.070165 2.191714 -14.601273 2.386335 -3.644610 26.138696 -0.083100 -1.211000 8.924000 -93.300273 9.044164 22.991754 24.488055 -33.681249 -6.324076 0.469177 0.044778 14.899704 -7.125000 0.000000 0.000000 96.444131 -13.198967 20.859955 -32.450158 40.846547 -9.777787 1.152422 -3.327319 13.524485 7.125000 0.000000 0.000000 
-0.606499 18.300750 5.787424 -3.483990 -4.746072 -2.161310 -11.814791 -9.520416 -1.367680 0.904966 7.152779 23.613877 -0.828485 8.503506 -18.021610 7.930800 -16.068100 -52.313100 2.658330 1.993797 -2.031725 0.123192 0.661479 1.430261 0.306447 -1.157345 6.388068 0.000000 0.000000 0.000000 -2.758370 3.418805 23.469617 -2.051608 2.194824 -14.588536 2.279973 -3.610749 26.109831 -0.109100 -1.205600 8.925600 -93.309028 9.005179 22.979717 24.475752 -33.670463 -6.318812 0.469268 0.042424 14.919358 -7.125000 0.000000 0.000000 96.430428 -13.154223 20.881123 -32.448182 40.852462 -9.779758 1.153120 -3.328276 13.500792 7.125000 0.000000 0.000000 
-0.607088 18.300651 5.787719 -3.519594 -4.740720 -2.185822 -11.791851 -9.515271 -1.351673 0.905996 7.148114 23.609986 -0.820305 8.473135 -18.024689 7.926200 -16.064700 -52.296600 2.658881 1.994313 -2.029928 0.122795 0.662607 1.430441 0.306771 -1.156518 6.389045 0.000000 0.000000 0.000000 -2.593366 3.384044 23.609268 -2.087867 2.184771 -14.586905 2.183199 -3.562388 26.082720 -0.128000 -1.193200 8.929500 -93.314147 8.972422 23.040416 24.471040 -33.669371 -6.317359 0.470032 0.042387 14.849710 -7.125000 0.000000 0.000000 96.395388 -13.107791 20.932377 -32.449235 40.862140 -9.785962 1.155453 -3.330139 13.475644 7.125000 0.000000 0.000000 
-0.607383 18.300160 5.788406 -3.547833 -4.732484 -2.222890 -11.769959 -9.480712 -1.333770 0.906768 7.142347 23.603165 -0.817469 8.455254 -18.008696 7.940000 -16.075000 -52.346400 2.658734 1.995190 -2.027665 0.122425 0.664217 1.430831 0.307255 -1.155177 6.390142 0.000000 0.000000 0.000000 -2.456802 3.346367 23.764418 -2.128546 2.170494 -14.584451 2.112896 -3.534559 26.130064 -0.142000 -1.187200 8.954900 -93.333524 8.928237 23.071260 24.449235 -33.654445 -6.308811 0.470912 0.040899 14.826552 -7.125000 0.000000 0.000000 96.400004 -13.052318 20.942894 -32.436173 40.863753 -9.783453 1.158149 -3.332969 13.528316 7.125000 0.000000 0.000000 
